<?xml version="1.0" encoding="UTF-8" standalone="no"?>
<!DOCTYPE svg PUBLIC "-//W3C//DTD SVG 1.1//EN" "http://www.w3.org/Graphics/SVG/1.1/DTD/svg11.dtd">
<svg width="100%" height="100%" viewBox="0 0 258 292" version="1.1" xmlns="http://www.w3.org/2000/svg" xmlns:xlink="http://www.w3.org/1999/xlink" xml:space="preserve" xmlns:serif="http://www.serif.com/" style="fill-rule:evenodd;clip-rule:evenodd;stroke-linejoin:round;stroke-miterlimit:2;">
    <path d="M191.102,105.182C209.916,118.624 232.964,126.533 257.857,126.533L257.857,78.656C253.146,78.657 248.447,78.166 243.838,77.19L243.838,114.876C218.947,114.876 195.902,106.967 177.083,93.526L177.083,191.229C177.083,240.105 137.441,279.724 88.543,279.724C70.298,279.724 53.34,274.211 39.253,264.756C55.331,281.187 77.753,291.38 102.559,291.38C151.46,291.38 191.104,251.761 191.104,202.883L191.104,105.182L191.102,105.182ZM208.396,56.88C198.781,46.381 192.468,32.813 191.102,17.813L191.102,11.655L177.817,11.655C181.161,30.72 192.567,47.008 208.396,56.88ZM70.181,227.25C64.809,220.21 61.906,211.598 61.919,202.743C61.919,180.389 80.051,162.264 102.421,162.264C106.59,162.263 110.734,162.901 114.707,164.161L114.707,115.214C110.064,114.578 105.378,114.308 100.694,114.407L100.694,152.505C96.718,151.245 92.572,150.605 88.402,150.609C66.032,150.609 47.901,168.732 47.901,191.089C47.901,206.897 56.964,220.583 70.181,227.25Z" style="fill:rgb(255,0,79);fill-rule:nonzero;"/>
    <path d="M177.083,93.525C195.902,106.966 218.947,114.875 243.838,114.875L243.838,77.189C229.944,74.231 217.644,66.974 208.396,56.88C192.566,47.007 181.161,30.719 177.817,11.655L142.921,11.655L142.921,202.881C142.842,225.174 124.741,243.225 102.419,243.225C89.265,243.225 77.579,236.958 70.178,227.25C56.962,220.583 47.899,206.896 47.899,191.09C47.899,168.735 66.03,150.61 88.4,150.61C92.686,150.61 96.817,151.277 100.692,152.506L100.692,114.408C52.653,115.4 14.018,154.632 14.018,202.882C14.018,226.968 23.639,248.803 39.254,264.757C53.341,274.211 70.299,279.725 88.544,279.725C137.443,279.725 177.084,240.104 177.084,191.229L177.084,93.525L177.083,93.525Z" style="fill:white;fill-rule:nonzero;"/>
    <path d="M243.838,77.189L243.838,66.999C231.309,67.018 219.026,63.511 208.396,56.879C217.806,67.176 230.197,74.276 243.838,77.189ZM177.817,11.655C177.498,9.833 177.253,7.999 177.083,6.158L177.083,0L128.901,0L128.901,191.228C128.824,213.518 110.724,231.569 88.4,231.569C81.846,231.569 75.658,230.014 70.178,227.251C77.579,236.958 89.265,243.224 102.419,243.224C124.739,243.224 142.843,225.175 142.921,202.882L142.921,11.655L177.817,11.655ZM100.694,114.408L100.694,103.56C96.668,103.01 92.609,102.734 88.545,102.736C39.642,102.735 0,142.356 0,191.228C0,221.868 15.58,248.871 39.255,264.755C23.64,248.802 14.019,226.966 14.019,202.881C14.019,154.632 52.653,115.4 100.694,114.408Z" style="fill:rgb(0,242,234);fill-rule:nonzero;"/>
</svg>
